<svg width="25" height="25" viewBox="0 0 25 25" fill="none" xmlns="http://www.w3.org/2000/svg">
<path d="M2.5 2.5H4.24001C5.32001 2.5 6.17 3.43 6.08 4.5L5.25 14.46C5.11 16.09 6.39999 17.49 8.03999 17.49H18.69C20.13 17.49 21.39 16.31 21.5 14.88L22.04 7.38C22.16 5.72 20.9 4.37 19.23 4.37H6.32001" stroke="#5D0E87" stroke-width="1.5" stroke-miterlimit="10" stroke-linecap="round" stroke-linejoin="round"/>
<path d="M16.75 22.5C17.4404 22.5 18 21.9404 18 21.25C18 20.5596 17.4404 20 16.75 20C16.0596 20 15.5 20.5596 15.5 21.25C15.5 21.9404 16.0596 22.5 16.75 22.5Z" stroke="#5D0E87" stroke-width="1.5" stroke-miterlimit="10" stroke-linecap="round" stroke-linejoin="round"/>
<path d="M8.75 22.5C9.44036 22.5 10 21.9404 10 21.25C10 20.5596 9.44036 20 8.75 20C8.05964 20 7.5 20.5596 7.5 21.25C7.5 21.9404 8.05964 22.5 8.75 22.5Z" stroke="#5D0E87" stroke-width="1.5" stroke-miterlimit="10" stroke-linecap="round" stroke-linejoin="round"/>
<path d="M9.5 8.5H21.5" stroke="#5D0E87" stroke-width="1.5" stroke-miterlimit="10" stroke-linecap="round" stroke-linejoin="round"/>
</svg>
